<?xml version="1.0" encoding="UTF-8" standalone="no"?><svg xmlns="http://www.w3.org/2000/svg" xmlns:xlink="http://www.w3.org/1999/xlink" contentScriptType="application/ecmascript" contentStyleType="text/css" height="177px" preserveAspectRatio="none" style="width:82px;height:177px;background:#FFFFFF;" version="1.1" viewBox="0 0 82 177" width="82px" zoomAndPan="magnify"><defs><filter height="300%" id="fji3b9i8bo1p6" width="300%" x="-1" y="-1"><feGaussianBlur result="blurOut" stdDeviation="2.0"/><feColorMatrix in="blurOut" result="blurOut2" type="matrix" values="0 0 0 0 0 0 0 0 0 0 0 0 0 0 0 0 0 0 .4 0"/><feOffset dx="4.0" dy="4.0" in="blurOut2" result="blurOut3"/><feBlend in="SourceGraphic" in2="blurOut3" mode="normal"/></filter></defs><g><!--MD5=[9f57ac87861df6213de8b6562fe37a6e]
class Bob--><rect codeLine="1" fill="#FEFECE" filter="url(#fji3b9i8bo1p6)" height="48" id="Bob" style="stroke:#A80036;stroke-width:1.5;" width="56" x="9.5" y="7"/><ellipse cx="24.5" cy="23" fill="#ADD1B2" rx="11" ry="11" style="stroke:#A80036;stroke-width:1.0;"/><path d="M26.8438,18.6719 C25.9063,18.2344 25.3125,18.0938 24.4375,18.0938 C21.8125,18.0938 19.8125,20.1719 19.8125,22.8906 L19.8125,24.0156 C19.8125,26.5938 21.9219,28.4844 24.8125,28.4844 C26.0313,28.4844 27.1875,28.1875 27.9375,27.6406 C28.5156,27.2344 28.8438,26.7813 28.8438,26.3906 C28.8438,25.9375 28.4531,25.5469 27.9844,25.5469 C27.7656,25.5469 27.5625,25.625 27.375,25.8125 C26.9219,26.2969 26.9219,26.2969 26.7344,26.3906 C26.3125,26.6563 25.625,26.7813 24.8594,26.7813 C22.8125,26.7813 21.5156,25.6875 21.5156,23.9844 L21.5156,22.8906 C21.5156,21.1094 22.7656,19.7969 24.5,19.7969 C25.0781,19.7969 25.6875,19.9531 26.1563,20.2031 C26.6406,20.4844 26.8125,20.7031 26.9063,21.1094 C26.9688,21.5156 27,21.6406 27.1406,21.7656 C27.2813,21.9063 27.5156,22.0156 27.7344,22.0156 C28,22.0156 28.2656,21.875 28.4375,21.6563 C28.5469,21.5 28.5781,21.3125 28.5781,20.8906 L28.5781,19.4688 C28.5781,19.0313 28.5625,18.9063 28.4688,18.75 C28.3125,18.4844 28.0313,18.3438 27.7344,18.3438 C27.4375,18.3438 27.2344,18.4375 27.0156,18.75 L26.8438,18.6719 Z " fill="#000000"/><text fill="#000000" font-family="sans-serif" font-size="12" lengthAdjust="spacing" textLength="24" x="38.5" y="27.1543">Bob</text><line style="stroke:#A80036;stroke-width:1.5;" x1="10.5" x2="64.5" y1="39" y2="39"/><line style="stroke:#A80036;stroke-width:1.5;" x1="10.5" x2="64.5" y1="47" y2="47"/><!--MD5=[1d11bff648c05e5c086236afcf5827b8]
class Alice--><rect codeLine="2" fill="#FEFECE" filter="url(#fji3b9i8bo1p6)" height="48" id="Alice" style="stroke:#A80036;stroke-width:1.5;" width="61" x="7" y="115"/><ellipse cx="22" cy="131" fill="#ADD1B2" rx="11" ry="11" style="stroke:#A80036;stroke-width:1.0;"/><path d="M24.3438,126.6719 C23.4063,126.2344 22.8125,126.0938 21.9375,126.0938 C19.3125,126.0938 17.3125,128.1719 17.3125,130.8906 L17.3125,132.0156 C17.3125,134.5938 19.4219,136.4844 22.3125,136.4844 C23.5313,136.4844 24.6875,136.1875 25.4375,135.6406 C26.0156,135.2344 26.3438,134.7813 26.3438,134.3906 C26.3438,133.9375 25.9531,133.5469 25.4844,133.5469 C25.2656,133.5469 25.0625,133.625 24.875,133.8125 C24.4219,134.2969 24.4219,134.2969 24.2344,134.3906 C23.8125,134.6563 23.125,134.7813 22.3594,134.7813 C20.3125,134.7813 19.0156,133.6875 19.0156,131.9844 L19.0156,130.8906 C19.0156,129.1094 20.2656,127.7969 22,127.7969 C22.5781,127.7969 23.1875,127.9531 23.6563,128.2031 C24.1406,128.4844 24.3125,128.7031 24.4063,129.1094 C24.4688,129.5156 24.5,129.6406 24.6406,129.7656 C24.7813,129.9063 25.0156,130.0156 25.2344,130.0156 C25.5,130.0156 25.7656,129.875 25.9375,129.6563 C26.0469,129.5 26.0781,129.3125 26.0781,128.8906 L26.0781,127.4688 C26.0781,127.0313 26.0625,126.9063 25.9688,126.75 C25.8125,126.4844 25.5313,126.3438 25.2344,126.3438 C24.9375,126.3438 24.7344,126.4375 24.5156,126.75 L24.3438,126.6719 Z " fill="#000000"/><text fill="#000000" font-family="sans-serif" font-size="12" lengthAdjust="spacing" textLength="29" x="36" y="135.1543">Alice</text><line style="stroke:#A80036;stroke-width:1.5;" x1="8" x2="67" y1="147" y2="147"/><line style="stroke:#A80036;stroke-width:1.5;" x1="8" x2="67" y1="155" y2="155"/><!--MD5=[838606ef52345285279842dbe5b94377]
link Bob to Alice--><path codeLine="4" d="M37.5,55 C37.5,66.5885 37.5,81.0294 37.5,94.6013 " fill="none" id="Bob-to-Alice" style="stroke:#A80036;stroke-width:1.0;"/><polygon fill="none" points="44.5001,94.6785,37.5,114.6784,30.5001,94.6784,44.5001,94.6785" style="stroke:#A80036;stroke-width:1.0;"/><!--MD5=[5f9e5b74cda964a92533e6830f1205c5]
@startuml
class Bob
class Alice

Bob - -|> Alice
@enduml

PlantUML version 1.2021.7beta2(Unknown compile time)
(GPL source distribution)
Java Runtime: Java(TM) SE Runtime Environment
JVM: Java HotSpot(TM) 64-Bit Server VM
Default Encoding: UTF-8
Language: en
Country: US
--></g></svg>