<?xml version="1.0" encoding="UTF-8" standalone="no"?><svg xmlns="http://www.w3.org/2000/svg" xmlns:xlink="http://www.w3.org/1999/xlink" contentScriptType="application/ecmascript" contentStyleType="text/css" height="67px" preserveAspectRatio="none" style="width:202px;height:67px;" version="1.1" viewBox="0 0 202 67" width="202px" zoomAndPan="magnify"><defs><filter height="300%" id="faqbnt9ywdgtc" width="300%" x="-1" y="-1"><feGaussianBlur result="blurOut" stdDeviation="2.0"/><feColorMatrix in="blurOut" result="blurOut2" type="matrix" values="0 0 0 0 0 0 0 0 0 0 0 0 0 0 0 0 0 0 .4 0"/><feOffset dx="4.0" dy="4.0" in="blurOut2" result="blurOut3"/><feBlend in="SourceGraphic" in2="blurOut3" mode="normal"/></filter></defs><g><!--MD5=[df38be88ccee13e832d6fafd6288a4ca]
class Test--><rect fill="#FEFECE" filter="url(#faqbnt9ywdgtc)" height="48" id="Test" style="stroke: #A80036; stroke-width: 1.5;" width="59" x="6" y="8"/><ellipse cx="21" cy="24" fill="#ADD1B2" rx="11" ry="11" style="stroke: #A80036; stroke-width: 1.0;"/><path d="M23.9688,29.6406 Q23.3906,29.9375 22.75,30.0781 Q22.1094,30.2344 21.4063,30.2344 Q18.9063,30.2344 17.5781,28.5938 Q16.2656,26.9375 16.2656,23.8125 Q16.2656,20.6875 17.5781,19.0313 Q18.9063,17.375 21.4063,17.375 Q22.1094,17.375 22.75,17.5313 Q23.4063,17.6875 23.9688,17.9844 L23.9688,20.7031 Q23.3438,20.125 22.75,19.8594 Q22.1563,19.5781 21.5313,19.5781 Q20.1875,19.5781 19.5,20.6563 Q18.8125,21.7188 18.8125,23.8125 Q18.8125,25.9063 19.5,26.9844 Q20.1875,28.0469 21.5313,28.0469 Q22.1563,28.0469 22.75,27.7813 Q23.3438,27.5 23.9688,26.9219 L23.9688,29.6406 Z "/><text fill="#000000" font-family="sans-serif" font-size="12" lengthAdjust="spacingAndGlyphs" textLength="27" x="35" y="28.1543">Test</text><line style="stroke: #A80036; stroke-width: 1.5;" x1="7" x2="64" y1="40" y2="40"/><line style="stroke: #A80036; stroke-width: 1.5;" x1="7" x2="64" y1="48" y2="48"/><!--MD5=[b9b380406db515a1070762dfb0d7acf0]
class uml--><rect fill="#FEFECE" filter="url(#faqbnt9ywdgtc)" height="48" id="uml" style="stroke: #A80036; stroke-width: 1.5;" width="54" x="137.5" y="8"/><ellipse cx="152.5" cy="24" fill="#ADD1B2" rx="11" ry="11" style="stroke: #A80036; stroke-width: 1.0;"/><path d="M155.4688,29.6406 Q154.8906,29.9375 154.25,30.0781 Q153.6094,30.2344 152.9063,30.2344 Q150.4063,30.2344 149.0781,28.5938 Q147.7656,26.9375 147.7656,23.8125 Q147.7656,20.6875 149.0781,19.0313 Q150.4063,17.375 152.9063,17.375 Q153.6094,17.375 154.25,17.5313 Q154.9063,17.6875 155.4688,17.9844 L155.4688,20.7031 Q154.8438,20.125 154.25,19.8594 Q153.6563,19.5781 153.0313,19.5781 Q151.6875,19.5781 151,20.6563 Q150.3125,21.7188 150.3125,23.8125 Q150.3125,25.9063 151,26.9844 Q151.6875,28.0469 153.0313,28.0469 Q153.6563,28.0469 154.25,27.7813 Q154.8438,27.5 155.4688,26.9219 L155.4688,29.6406 Z "/><text fill="#000000" font-family="sans-serif" font-size="12" lengthAdjust="spacingAndGlyphs" textLength="22" x="166.5" y="28.1543">uml</text><line style="stroke: #A80036; stroke-width: 1.5;" x1="138.5" x2="190.5" y1="40" y2="40"/><line style="stroke: #A80036; stroke-width: 1.5;" x1="138.5" x2="190.5" y1="48" y2="48"/><!--MD5=[f291e4de3bf89ee4fef1c63a75850199]
link Test to uml--><path d="M65.1,32 C86.82,32 116.09,32 137.24,32 " fill="none" id="Test-uml" style="stroke: #A80036; stroke-width: 1.0;"/><text fill="#000000" font-family="sans-serif" font-size="13" lengthAdjust="spacingAndGlyphs" textLength="36" x="83.25" y="25.0669">works</text><!--MD5=[5aa09c0da725a4ab7a907245bce4292b]
@startuml
Test - uml : works
@enduml

PlantUML version 1.2020.02(Sun Mar 01 10:22:07 GMT 2020)
(GPL source distribution)
Java Runtime: OpenJDK Runtime Environment
JVM: OpenJDK 64-Bit Server VM
Java Version: 11.0.9+11-Ubuntu-0ubuntu1
Operating System: Linux
Default Encoding: ANSI_X3.4-1968
Language: en
Country: US
--></g></svg>